<?xml version="1.0" encoding="UTF-8"?>
<svg width="64" height="64" version="1.1" viewBox="0 0 1536 1533" xmlns="http://www.w3.org/2000/svg">
 <rect width="100%" height="100%" fill="none" stroke="#000"/>
 <g fill="#fff" fill-rule="evenodd" stroke-width="0">
  <path d="m835.55 1401.7 0.80259-0.5h3.2103l0.80258-0.5 3.2103-2v-3l1.6052-1v-1240l-1.6052-1v-2l-1.6052-1v-1l-1.6052-1v-1l-68.22-42.5h-1.6052l-0.80259-0.5v-1l-0.80259-0.5h-1.6052l-2.4078-1.5-4.8155-3-6.4207-4v-1l-2.4078-1.5-19.262-12h-1.6052l-0.80259-0.5-2.4078-1.5-21.67-13.5v-1l-1.6052-1-8.8284-5.5h-1.6052l-1.6052-1h-4.8155l-0.80258 0.5-1.6052 1v2l-0.80258 0.5-0.8026 0.5v1333l0.8026 0.5 0.80258 0.5v3l1.6052 1 2.4077 1.5h4.8155l1.6052 1h123.6l1.6052 1h14.447z"/>
  <g>
   <path d="m882.71 1037h141.9l-8.5139-374.56 354.75 273.61v111.57h133.39v-172.67l-624.36-496.76z"/>
   <path d="m876.92 1380.4 5.5276-345.57 619.09 5.3165v15.95l-60.803 47.849 46.984 21.266v263.17h-154.77v-223.29h-309.54l-5.5276 215.32z"/>
   <path d="m637.12 1392.9 2.6575-116.93h-422.54l-2.6575-167.42 425.2-2.6575v-135.53h-425.2v-103.64l287.01-236.52v273.72l140.85-2.6575v-597.94l-600.59 507.58-5.315 579.33z"/>
  </g>
 </g>
</svg>
